HIERARCHY
ROOT Hips
{
	OFFSET -0.001795 -0.223333 0.028219
	CHANNELS 6 Xposition Yposition Zposition Zrotation Yrotation Xrotation 
	JOINT LeftUpLeg
	{
		OFFSET 0.069520 -0.091406 -0.006815
		CHANNELS 3 Zrotation Yrotation Xrotation
		JOINT LeftLeg
		{
			OFFSET 0.034277 -0.375199 -0.004496
			CHANNELS 3 Zrotation Yrotation Xrotation
			JOINT LeftFoot
			{
				OFFSET -0.013596 -0.397961 -0.043693
				CHANNELS 3 Zrotation Yrotation Xrotation
				JOINT LeftToe
				{
					OFFSET 0.026358 -0.055791 0.119288
					CHANNELS 3 Zrotation Yrotation Xrotation
					End Site
					{
						OFFSET 0.000000 0.000000 0.000000
					}
				}
			}
		}
	}
	JOINT RightUpLeg
	{
		OFFSET -0.067670 -0.090522 -0.004320
		CHANNELS 3 Zrotation Yrotation Xrotation
		JOINT RightLeg
		{
			OFFSET -0.038290 -0.382569 -0.008850
			CHANNELS 3 Zrotation Yrotation Xrotation
			JOINT RightFoot
			{
				OFFSET 0.015774 -0.398415 -0.042312
				CHANNELS 3 Zrotation Yrotation Xrotation
				JOINT RightToe
				{
					OFFSET -0.025372 -0.048144 0.123348
					CHANNELS 3 Zrotation Yrotation Xrotation
					End Site
					{
						OFFSET 0.000000 0.000000 0.000000
					}
				}
			}
		}
	}
	JOINT Spine
	{
		OFFSET -0.002533 0.108963 -0.026696
		CHANNELS 3 Zrotation Yrotation Xrotation
		JOINT Spine1
		{
			OFFSET 0.005487 0.135180 0.001092
			CHANNELS 3 Zrotation Yrotation Xrotation
			JOINT Spine2
			{
				OFFSET 0.001457 0.052922 0.025425
				CHANNELS 3 Zrotation Yrotation Xrotation
				JOINT Neck
				{
					OFFSET -0.002778 0.213870 -0.042857
					CHANNELS 3 Zrotation Yrotation Xrotation
					JOINT Head
					{
						OFFSET 0.005152 0.064970 0.051349
						CHANNELS 3 Zrotation Yrotation Xrotation
						End Site
						{
							OFFSET 0.000000 0.000000 0.000000
						}
					}
				}
				JOINT LeftShoulder
				{
					OFFSET 0.078845 0.121749 -0.034090
					CHANNELS 3 Zrotation Yrotation Xrotation
					JOINT LeftArm
					{
						OFFSET 0.090977 0.030469 -0.008868
						CHANNELS 3 Zrotation Yrotation Xrotation
						JOINT LeftForeArm
						{
							OFFSET 0.259612 -0.012772 -0.027456
							CHANNELS 3 Zrotation Yrotation Xrotation
							JOINT LeftHand
							{
								OFFSET 0.249234 0.008986 -0.001171
								CHANNELS 3 Zrotation Yrotation Xrotation
								End Site
								{
									OFFSET 0.000000 0.000000 0.000000
								}
							}
						}
					}
				}
				JOINT RightShoulder
				{
					OFFSET -0.081759 0.118833 -0.038615
					CHANNELS 3 Zrotation Yrotation Xrotation
					JOINT RightArm
					{
						OFFSET -0.096012 0.032551 -0.009143
						CHANNELS 3 Zrotation Yrotation Xrotation
						JOINT RightForeArm
						{
							OFFSET -0.253742 -0.013329 -0.021401
							CHANNELS 3 Zrotation Yrotation Xrotation
							JOINT RightHand
							{
								OFFSET -0.255298 0.007772 -0.005559
								CHANNELS 3 Zrotation Yrotation Xrotation
								End Site
								{
									OFFSET 0.000000 0.000000 0.000000
								}
							}
						}
					}
				}
			}
		}
	}
}
MOTION
Frames: 17
Frame Time: 0.050000
0.000000 0.802480 0.000000 -0.996455 -8.995527 25.008039 3.499333 -0.328456 -72.552332 -10.991527 6.716345 55.713907 9.733208 20.139782 -0.728718 0.000000 0.000000 0.000000 -13.248113 2.738736 -60.215479 22.751833 -10.458345 52.458226 -13.626604 -41.253288 -12.171133 0.000000 0.000000 0.000000 5.039670 -3.157807 64.822603 -7.686359 1.803366 -29.062249 -3.175225 2.143748 30.937436 14.404394 -6.506591 -25.922629 0.000000 0.000000 0.000000 -15.806282 -4.845338 2.137429 -49.543417 -3.654788 -6.967052 -44.072806 -74.369938 40.524034 0.000000 0.000000 0.000000 19.835559 -5.500501 -4.585334 54.185106 -4.689022 -9.619332 36.975902 59.502961 24.945819 0.000000 0.000000 0.000000 
0.001110 0.797786 0.000854 -1.694253 -9.883893 25.471967 4.258954 0.727162 -72.346703 -9.971984 6.362068 57.023908 9.035999 18.610568 -3.246424 0.000000 0.000000 0.000000 -12.800216 3.449582 -62.043127 23.478332 -11.177857 54.739772 -14.779590 -43.485656 -10.568065 0.000000 0.000000 0.000000 3.502467 -1.666689 65.901016 -6.975435 1.555190 -32.233843 -0.985041 4.178636 33.673044 15.555618 -5.836546 -31.296497 0.000000 0.000000 0.000000 -18.925470 -7.207713 2.980980 -43.164836 -0.962526 -7.054422 -84.155002 -80.782866 80.831733 0.000000 0.000000 0.000000 22.120372 -8.137670 -5.883451 51.900476 -7.157967 -10.456887 43.927688 63.673694 32.439096 0.000000 0.000000 0.000000 
0.001564 0.793517 0.002492 -0.401250 -8.858484 23.901183 4.357761 0.151343 -71.302204 -11.777308 7.512080 56.761208 9.045240 18.617985 -6.639162 0.000000 0.000000 0.000000 -14.870993 1.940083 -60.869112 25.687283 -13.074083 55.423828 -15.583627 -45.779803 -11.133849 0.000000 0.000000 0.000000 3.275889 -1.898930 66.959617 -5.700915 1.452886 -31.212943 -2.055916 4.293390 33.238058 14.659628 -6.012063 -28.050372 0.000000 0.000000 0.000000 -14.912194 -7.850539 3.188737 -48.068117 0.316874 -8.244995 -93.450112 -82.362643 91.851628 0.000000 0.000000 0.000000 22.602366 -7.137842 -5.137223 50.410928 -7.486595 -10.290385 53.846758 63.632454 39.422100 0.000000 0.000000 0.000000 
0.001872 0.789474 0.004489 0.102582 -7.696072 23.450099 3.596854 -0.975781 -71.476085 -11.232700 7.011021 57.762544 7.936519 16.080048 -6.782846 0.000000 0.000000 0.000000 -15.069053 1.386784 -61.121023 25.846638 -13.788793 56.404384 -16.770416 -47.221520 -9.404081 0.000000 0.000000 0.000000 3.492780 -2.630055 67.877413 -6.502596 1.551548 -31.911371 -2.114995 3.137544 33.309845 15.672142 -6.169414 -30.582402 0.000000 0.000000 0.000000 -16.451609 -7.947583 3.501907 -46.759089 1.318196 -8.443686 -122.469643 -82.953523 122.950128 0.000000 0.000000 0.000000 23.194966 -7.024949 -5.422345 48.732370 -9.181743 -10.515125 61.701495 65.689889 46.333695 0.000000 0.000000 0.000000 
0.001744 0.782836 0.006834 0.278342 -7.919373 22.825267 4.133621 -0.508718 -72.106420 -12.490256 8.127301 58.991751 8.568270 17.485073 -7.238427 0.000000 0.000000 0.000000 -15.184555 1.379375 -60.520841 25.751470 -13.886802 57.419759 -16.519793 -47.348185 -10.528216 0.000000 0.000000 0.000000 3.346880 -2.417575 67.576212 -6.547575 1.571190 -31.684499 -2.535608 3.450404 33.404959 14.156718 -5.602437 -29.265868 0.000000 0.000000 0.000000 -15.435199 -8.686461 3.815506 -47.849734 1.088797 -8.553294 -144.618046 -83.501444 147.537494 0.000000 0.000000 0.000000 24.178289 -8.092586 -6.190219 46.039614 -9.473754 -10.027184 71.595967 64.917194 53.479965 0.000000 0.000000 0.000000 
0.001464 0.776480 0.008773 0.040168 -7.962642 21.530608 4.359808 -0.347564 -71.682756 -12.678899 8.532082 60.401347 8.637133 17.566126 -7.643868 0.000000 0.000000 0.000000 -14.695056 1.589952 -59.453159 25.390478 -13.857805 58.849242 -16.893015 -48.528079 -11.134783 0.000000 0.000000 0.000000 3.107501 -2.200678 68.836537 -6.853844 1.602411 -32.786887 -2.137868 3.102664 33.810269 14.122199 -5.519997 -29.902467 0.000000 0.000000 0.000000 -15.081500 -8.034658 3.505959 -47.654998 1.400445 -8.683889 -146.612976 -82.954734 149.581874 0.000000 0.000000 0.000000 22.498875 -8.298605 -6.114123 45.754175 -10.298148 -10.241371 79.387057 64.081620 59.084840 0.000000 0.000000 0.000000 
0.001309 0.773672 0.010084 0.037245 -7.897011 21.250368 4.878641 -0.014821 -71.805578 -13.104910 8.991145 61.198729 8.833254 18.044488 -6.824601 0.000000 0.000000 0.000000 -14.429476 1.675969 -58.928840 24.655900 -13.405740 59.271063 -16.418755 -48.592605 -12.793262 0.000000 0.000000 0.000000 2.847510 -2.022315 68.570546 -6.783635 1.590523 -32.961158 -2.428293 3.154668 33.622349 14.210491 -5.597201 -29.719384 0.000000 0.000000 0.000000 -15.038070 -7.842605 3.381513 -46.880167 2.632066 -8.932914 -153.261018 -81.219399 156.042910 0.000000 0.000000 0.000000 22.434507 -8.736000 -6.382077 44.653289 -11.018752 -10.170677 88.559421 62.312929 65.193497 0.000000 0.000000 0.000000 
0.001603 0.774108 0.010893 -0.198954 -7.569951 21.187215 5.286772 0.118901 -71.707209 -12.933352 8.876500 61.522123 8.736692 17.823192 -7.162973 0.000000 0.000000 0.000000 -13.801877 1.843678 -58.278759 23.812662 -12.878977 59.468178 -16.447688 -49.040009 -13.318434 0.000000 0.000000 0.000000 2.690013 -2.039229 68.416061 -6.488142 1.541355 -33.509159 -2.017239 3.492015 33.717346 14.548228 -5.689574 -29.904957 0.000000 0.000000 0.000000 -16.244931 -7.965997 3.367894 -45.597954 3.134246 -8.834955 -152.191833 -81.010251 154.300142 0.000000 0.000000 0.000000 21.723339 -9.539681 -6.672793 43.366074 -11.068860 -9.873687 95.876067 61.554746 71.219675 0.000000 0.000000 0.000000 
0.002306 0.777768 0.011708 -0.332682 -7.522339 21.010966 5.817511 0.428968 -70.697229 -13.133775 8.885406 60.265534 8.732325 17.835528 -7.049294 0.000000 0.000000 0.000000 -13.103821 2.110732 -57.256207 22.650111 -11.832904 58.773253 -15.775375 -48.512676 -14.890757 0.000000 0.000000 0.000000 2.360551 -1.802498 67.638254 -6.104006 1.502699 -33.386323 -1.804772 3.926711 33.393359 15.010289 -5.805304 -30.234835 0.000000 0.000000 0.000000 -17.148921 -8.384247 3.487607 -45.191031 3.859992 -8.930144 -148.332738 -81.131446 149.562263 0.000000 0.000000 0.000000 21.380821 -10.003288 -6.800455 41.591043 -11.001416 -9.400935 100.222427 61.089111 74.906076 0.000000 0.000000 0.000000 
0.003338 0.782645 0.012962 -0.655884 -7.388175 20.543096 5.496385 0.138988 -69.918708 -12.219603 8.115491 59.733008 8.830821 18.119930 -5.627512 0.000000 0.000000 0.000000 -12.520442 2.285947 -56.103260 22.009729 -11.166147 57.942866 -15.463204 -48.094347 -15.552480 0.000000 0.000000 0.000000 2.342128 -1.829590 67.078045 -6.045788 1.494194 -33.548940 -1.540216 4.252888 33.527259 15.106427 -5.697312 -30.889835 0.000000 0.000000 0.000000 -16.739295 -7.951861 3.153140 -45.939841 3.771097 -9.070578 -137.916566 -81.206131 137.731049 0.000000 0.000000 0.000000 20.658002 -10.130367 -6.657840 41.310230 -9.815111 -9.045733 103.318791 61.343927 78.648107 0.000000 0.000000 0.000000 
0.004648 0.786276 0.015170 -0.945209 -7.402392 20.112194 4.909102 -0.261272 -68.939908 -10.856152 7.092240 59.479647 8.863774 18.178297 -5.918065 0.000000 0.000000 0.000000 -11.854530 2.511412 -54.687491 21.357335 -10.410761 56.840761 -14.757065 -47.138238 -16.987252 0.000000 0.000000 0.000000 2.296024 -1.774147 65.992861 -5.998774 1.492011 -33.560468 -1.192491 5.220738 33.212862 15.242903 -5.512294 -31.499368 0.000000 0.000000 0.000000 -17.250288 -8.291662 3.078083 -46.438711 3.582314 -9.059983 -119.642721 -81.846179 117.767895 0.000000 0.000000 0.000000 21.146046 -10.262638 -6.541982 40.171198 -8.131320 -8.389779 104.360555 62.447173 81.505920 0.000000 0.000000 0.000000 
0.006323 0.788246 0.018954 -1.163930 -7.552614 19.160413 4.506794 -0.477548 -67.720588 -10.029884 6.591205 59.757449 9.053655 18.574307 -5.320265 0.000000 0.000000 0.000000 -11.428036 2.656797 -53.380481 21.135573 -10.115362 56.816758 -14.323748 -46.120482 -17.687311 0.000000 0.000000 0.000000 2.490922 -1.829092 65.421541 -6.070344 1.505437 -33.522301 -1.149702 5.608098 33.090350 14.626576 -5.216297 -31.271571 0.000000 0.000000 0.000000 -17.638866 -8.047803 2.838615 -46.170047 3.178577 -8.874897 -93.405731 -82.455367 90.898763 0.000000 0.000000 0.000000 20.598393 -9.344782 -5.769540 40.339172 -6.392036 -8.008318 102.854674 63.071840 81.023524 0.000000 0.000000 0.000000 
0.008323 0.787932 0.024341 -1.503025 -8.135911 18.105262 3.981923 -0.591243 -66.522746 -8.851108 5.965668 60.580989 8.958693 18.279778 -5.637585 0.000000 0.000000 0.000000 -10.922387 2.942760 -52.308378 20.996428 -9.904250 57.658032 -14.327276 -45.526583 -17.260562 0.000000 0.000000 0.000000 2.397011 -1.525068 64.084910 -5.834391 1.493852 -32.666932 -1.111888 6.735222 32.368363 14.285667 -4.897233 -31.168436 0.000000 0.000000 0.000000 -17.709801 -8.879142 3.005108 -46.793924 3.871143 -9.124534 -71.919529 -81.213445 68.124665 0.000000 0.000000 0.000000 22.278886 -8.494767 -5.156143 39.252456 -4.991378 -7.484095 97.293305 63.927963 76.650418 0.000000 0.000000 0.000000 
0.010490 0.786948 0.031352 -1.594427 -8.542000 16.891731 3.278574 -0.904557 -65.080045 -8.055354 5.605451 61.466818 9.154490 18.650042 -5.899111 0.000000 0.000000 0.000000 -10.629735 3.035461 -50.807915 20.578912 -9.525620 58.448960 -13.980814 -44.944471 -18.250262 0.000000 0.000000 0.000000 2.465780 -1.414959 62.805328 -6.073043 1.541184 -31.976932 -0.989102 6.828778 31.913173 13.447814 -4.553436 -30.904597 0.000000 0.000000 0.000000 -19.367225 -8.425588 2.714127 -45.236582 4.851311 -9.097946 -63.913232 -79.158548 58.642574 0.000000 0.000000 0.000000 23.167702 -7.851039 -4.853773 38.453945 -4.469628 -7.225155 92.756272 62.853538 70.874091 0.000000 0.000000 0.000000 
0.012599 0.786025 0.039439 -1.561578 -8.852702 15.654663 2.656604 -1.197612 -64.056757 -7.657358 5.555676 62.829981 9.364990 19.062832 -5.533487 0.000000 0.000000 0.000000 -10.315141 3.092648 -49.352017 19.937124 -9.083928 59.697495 -13.963821 -44.620933 -18.362714 0.000000 0.000000 0.000000 2.702754 -1.461388 61.849128 -6.263943 1.577647 -31.794485 -1.118000 7.070914 31.982723 13.318282 -4.524238 -30.890841 0.000000 0.000000 0.000000 -20.240891 -8.271888 2.587236 -44.462041 6.054255 -9.351627 -57.861687 -77.764895 51.918450 0.000000 0.000000 0.000000 24.131400 -7.167595 -4.458856 37.678965 -4.754453 -7.223732 88.919828 61.697671 65.893364 0.000000 0.000000 0.000000 
0.014366 0.787611 0.048167 -1.658909 -9.332581 15.262725 2.090044 -1.369872 -63.110438 -6.953547 5.199087 63.160978 9.723853 19.831802 -5.914139 0.000000 0.000000 0.000000 -9.925257 3.196398 -47.721962 19.184605 -8.284111 59.504794 -13.390166 -43.984365 -20.168222 0.000000 0.000000 0.000000 2.909849 -1.431473 60.087324 -6.726999 1.660553 -31.283366 -1.189245 6.876471 31.778615 12.613521 -4.262301 -30.631066 0.000000 0.000000 0.000000 -20.861697 -7.198860 2.071558 -43.002689 6.740674 -9.229205 -54.587200 -76.398287 47.975577 0.000000 0.000000 0.000000 24.162218 -6.999996 -4.518943 37.834444 -5.332695 -7.344743 86.713481 60.241516 62.131251 0.000000 0.000000 0.000000 
0.015937 0.791340 0.057187 -1.578721 -9.589733 14.898281 1.553943 -1.605425 -61.590928 -6.857762 5.224026 62.675430 10.089867 20.672602 -6.857294 0.000000 0.000000 0.000000 -9.337767 3.294952 -46.039945 18.404059 -7.534008 59.313001 -13.109467 -44.122968 -21.735875 0.000000 0.000000 0.000000 2.672539 -1.208238 58.485103 -6.505131 1.641226 -30.797631 -1.617274 6.668744 31.613951 12.216749 -4.281277 -29.809427 0.000000 0.000000 0.000000 -20.985159 -6.377680 1.725284 -42.513689 7.911775 -9.506067 -52.013883 -75.590114 45.222215 0.000000 0.000000 0.000000 24.958466 -6.744276 -4.586675 37.560513 -6.614917 -7.584548 85.884017 58.784188 59.542401 0.000000 0.000000 0.000000 
